<?xml version="1.0" encoding="utf-8"?>
<svg xmlns="http://www.w3.org/2000/svg">
  <defs>
    <symbol id="menu-icon" viewBox="0 0 24 24">
      <path d="M3 12H21M3 6H21M3 18H21" fill="none" stroke="currentColor" stroke-width="2" stroke-linecap="round"></path>
    </symbol>
    <symbol id="close-icon" viewBox="0 0 24 24">
      <path d="M18 6 6 18" fill="none" stroke="currentColor" stroke-width="2" stroke-linecap="round" stroke-linejoin="round"></path>
      <path d="m6 6 12 12" fill="none" stroke="currentColor" stroke-width="2" stroke-linecap="round" stroke-linejoin="round"></path>
    </symbol>
    <symbol id="instagram" viewBox="0 0 24 24" fill="none">
      <rect width="20" height="20" x="2" y="2" rx="5" ry="5" fill="none" stroke="currentColor" stroke-width="2" stroke-linecap="round" stroke-linejoin="round"></rect>
      <path d="M16 11.37A4 4 0 1 1 12.63 8 4 4 0 0 1 16 11.37z" fill="none" stroke="currentColor" stroke-width="2" stroke-linecap="round" stroke-linejoin="round"></path>
      <line x1="17.5" x2="17.51" y1="6.5" y2="6.5" fill="none" stroke="currentColor" stroke-width="2" stroke-linecap="round" stroke-linejoin="round"></line>
    </symbol>
    <symbol id="mail" fill="none" viewBox="0 0 24 24">
      <path d="m22 7-8.991 5.727a2 2 0 0 1-2.009 0L2 7" fill="none" stroke="currentColor" stroke-width="2" stroke-linecap="round" stroke-linejoin="round"></path>
      <rect x="2" y="4" width="20" height="16" rx="2" fill="none" stroke="currentColor" stroke-width="2" stroke-linecap="round" stroke-linejoin="round"></rect>
    </symbol>
    <symbol id="chevron-left" viewBox="0 0 24 24">
      <path d="m15 18-6-6 6-6" fill="none" stroke="currentColor" stroke-width="2" stroke-linecap="round" stroke-linejoin="round"></path>
    </symbol>
    <symbol id="chevron-right" viewBox="0 0 24 24">
      <path d="m9 18 6-6-6-6" fill="none" stroke="currentColor" stroke-width="2" stroke-linecap="round" stroke-linejoin="round"></path>
    </symbol>
  </defs>
</svg>
