<?xml version="1.0" encoding="utf-8"?>
<svg xmlns="http://www.w3.org/2000/svg">
  <defs>
    <symbol id="instagram-icon" viewBox="0 0 448 512">
      <path
        d="M224.1 141c-63.6 0-114.9 51.3-114.9 114.9s51.3 114.9 114.9 114.9S339 319.5 339 255.9 287.7 141 224.1 141zm0 189.6c-41.1 0-74.7-33.5-74.7-74.7s33.5-74.7 74.7-74.7 74.7 33.5 74.7 74.7-33.6 74.7-74.7 74.7zm146.4-194.3c0 14.9-12 26.8-26.8 26.8-14.9 0-26.8-12-26.8-26.8s12-26.8 26.8-26.8 26.8 12 26.8 26.8zm76.1 27.2c-1.7-35.9-9.9-67.7-36.2-93.9-26.2-26.2-58-34.4-93.9-36.2-37-2.1-147.9-2.1-184.9 0-35.8 1.7-67.6 9.9-93.9 36.1s-34.4 58-36.2 93.9c-2.1 37-2.1 147.9 0 184.9 1.7 35.9 9.9 67.7 36.2 93.9s58 34.4 93.9 36.2c37 2.1 147.9 2.1 184.9 0 35.9-1.7 67.7-9.9 93.9-36.2 26.2-26.2 34.4-58 36.2-93.9 2.1-37 2.1-147.8 0-184.8zM398.8 388c-7.8 19.6-22.9 34.7-42.6 42.6-29.5 11.7-99.5 9-132.1 9s-102.7 2.6-132.1-9c-19.6-7.8-34.7-22.9-42.6-42.6-11.7-29.5-9-99.5-9-132.1s-2.6-102.7 9-132.1c7.8-19.6 22.9-34.7 42.6-42.6 29.5-11.7 99.5-9 132.1-9s102.7-2.6 132.1 9c19.6 7.8 34.7 22.9 42.6 42.6 11.7 29.5 9 99.5 9 132.1s2.7 102.7-9 132.1z"
      ></path>
    </symbol>
    <symbol id="twitter-icon" viewBox="0 0 512 512">
      <path
        d="M459.37 151.716c.325 4.548.325 9.097.325 13.645 0 138.72-105.583 298.558-298.558 298.558-59.452 0-114.68-17.219-161.137-47.106 8.447.974 16.568 1.299 25.34 1.299 49.055 0 94.213-16.568 130.274-44.832-46.132-.975-84.792-31.188-98.112-72.772 6.498.974 12.995 1.624 19.818 1.624 9.421 0 18.843-1.3 27.614-3.573-48.081-9.747-84.143-51.98-84.143-102.985v-1.299c13.969 7.797 30.214 12.67 47.431 13.319-28.264-18.843-46.781-51.005-46.781-87.391 0-19.492 5.197-37.36 14.294-52.954 51.655 63.675 129.3 105.258 216.365 109.807-1.624-7.797-2.599-15.918-2.599-24.04 0-57.828 46.782-104.934 104.934-104.934 30.213 0 57.502 12.67 76.67 33.137 23.715-4.548 46.456-13.32 66.599-25.34-7.798 24.366-24.366 44.833-46.132 57.827 21.117-2.273 41.584-8.122 60.426-16.243-14.292 20.791-32.161 39.308-52.628 54.253z"
      ></path>
    </symbol>
    <symbol id="video-icon" viewBox="0 0 100 102">
      <path
        d="M67.021 99.064H32.043C23.484 99.064 15.438 95.73 9.385 89.678C3.333 83.626 0 75.579 0 67.021V32.043C0 23.484 3.333 15.437 9.385 9.385C15.438 3.333 23.484 0 32.043 0H67.022C75.58 0 83.628 3.333 89.68 9.385C95.732 15.437 99.065 23.484 99.065 32.043V67.022C99.065 75.58 95.732 83.626 89.68 89.679C83.628 95.73 75.58 99.064 67.021 99.064ZM32.043 6.994C18.231 6.994 6.994 18.231 6.994 32.043V67.022C6.994 80.834 18.231 92.072 32.043 92.072H67.022C80.834 92.072 92.071 80.835 92.071 67.022V32.043C92.071 18.231 80.835 6.994 67.022 6.994H32.043Z"
      />
      <path
        d="M37.032 72.312C36.428 72.312 35.824 72.156 35.283 71.843C34.2 71.219 33.534 70.066 33.534 68.816V30.249C33.534 28.999 34.2 27.845 35.283 27.22C36.365 26.596 37.698 26.596 38.78 27.22L72.181 46.505C73.263 47.13 73.929 48.282 73.929 49.532C73.929 50.782 73.263 51.937 72.181 52.561L38.78 71.844C38.239 72.156 37.635 72.312 37.032 72.312Z"
      />
    </symbol>
    <symbol id="nav-close-icon" viewBox="0 0 24 24">
      <path stroke-linecap="round" stroke-linejoin="round" d="M6 18 18 6M6 6l12 12"></path>
    </symbol>
    <symbol id="nav-open-icon" viewBox="0 0 24 24">
      <path stroke-linecap="round" stroke-linejoin="round" d="M3.75 6.75h16.5M3.75 12h16.5m-16.5 5.25h16.5"></path>
    </symbol>
  </defs>
</svg>
